<svg enable-background="new 0 0 47 41" height="295.473666" viewBox="0 0 47 41" width="338.439636" xmlns="http://www.w3.org/2000/svg" xmlns:xlink="http://www.w3.org/1999/xlink"><clipPath id="a"><path d="m7.19.86h32.41v38.8h-32.41z"/></clipPath><g clip-rule="evenodd" fill-rule="evenodd"><path clip-path="url(#a)" d="m12.06 18.47c.52 0 1.17 0 1.77.32.14.07.25.15.35.24v-13.26h-2.74v12.7z" fill="#a1ce9a"/><path clip-path="url(#a)" d="m9.41 18.47h.58v-14.79h-2.79v15.46c.4-.42 1.07-.67 2.21-.67" fill="#008a44"/><path clip-path="url(#a)" d="m21.11 18.47h.06c.41.01.98.04 1.46.46v-18.07h-2.78v17.61z" fill="#72b54e"/><path clip-path="url(#a)" d="m15.64 3.97h2.78v10.51h-2.78z" fill="#38a444"/><path clip-path="url(#a)" d="m28.36 7.16h2.78v11.31h-2.78z" fill="#72b54e"/><path clip-path="url(#a)" d="m24.14 3.57h2.78v14.9h-2.78z" fill="#a1ce9a"/><path clip-path="url(#a)" d="m34.74 18.47h.67v-13.01h-2.76v13.74c.39-.5 1.05-.72 2.09-.73" fill="#38a444"/><path clip-path="url(#a)" d="m39.52 18.47h.09v-16.75h-2.73v16.75z" fill="#008a44"/></g><path clip-path="url(#a)" d="m14.16 25.35v-.83h-2.66v.83h-1.1c-.22-.02-.38-.2-.39-.42v-2.82c.01-.23.2-.42.43-.42h1.06v.83h2.66v-1.17c-.02-.53.05-1.2-.68-1.6-.44-.24-.98-.24-1.44-.24h-2.65c-2.08 0-2.18.79-2.2 2.79v3.26c0 .61.03 1.59 1.33 1.87.33.07.7.07 1.06.07h2.59c1.85-.01 2.01-.62 1.99-2.15" fill="#005daa"/><path clip-path="url(#a)" d="m31.09 25.35v-5.84h-2.79v5.84h-1.04c-.21-.02-.37-.19-.39-.4v-5.44h-3.49v2.16h.71v3.94c.05.51.07 1.15.59 1.56.42.34 1.04.34 1.53.34h.88.02 1.22.43 3.12v-2.16z" fill="#005daa"/><path clip-path="url(#a)" d="m35.66 21.43h-.29v.29c0-.16.13-.29.29-.29" fill="#005daa"/><path clip-path="url(#a)" d="m36.52 25.61h.29v-.29c0 .16-.13.29-.29.29" fill="#005daa"/><path clip-path="url(#a)" d="m22.59 25.42v-4.23c0-.37.05-.81-.21-1.17-.36-.49-.93-.49-1.39-.51h-1.53-1.07v-3.99h-3.48v2.15h.7v7.67h-.7v2.16h2.95.53 1.14v-.01l.02.01h1.14c.53 0 1.37 0 1.76-.78.2-.4.14-.86.14-1.3m-3.19-.07h-1.01v-3.68h1.03c.21.02.37.18.39.39v2.92c-.02.21-.2.36-.41.37" fill="#005daa"/><path clip-path="url(#a)" d="m39.54 21.96v-2.44h-4.86c-1.54.02-2.09.41-2.1 1.93v1.61c.02.35.18.65.57.76l3.65.84v.95h-1.45v-.59h-2.75v2.49h5.13c1.24-.02 1.85-.31 1.8-1.9v-1.76c0-.37-.15-.7-.56-.82l-3.6-.87v-.73h1.45v.53z" fill="#005daa"/><path clip-path="url(#a)" d="m35.19 36.97h1.59v-3.41c0-.23.04-.44.13-.63s.2-.35.34-.48.31-.24.51-.31.4-.11.62-.11c.15 0 .28.01.4.03.11.02.22.05.33.09l.32-1.49c-.13-.04-.25-.08-.37-.09-.12-.02-.26-.03-.41-.03-.26 0-.49.03-.69.09s-.38.14-.53.23-.29.19-.4.3-.2.21-.28.3l-.04-.79h-1.52zm-5.68-3.83c0-.16.04-.32.11-.48s.17-.31.31-.44c.13-.13.3-.24.51-.32.2-.09.43-.13.69-.13.24 0 .46.04.65.13s.34.19.46.32.21.28.28.44c.06.16.09.32.09.48zm3.78 1.94c-.05.05-.13.12-.24.21-.1.09-.24.17-.4.24-.16.08-.36.14-.59.2s-.5.09-.8.09c-.21 0-.42-.04-.63-.11s-.4-.17-.57-.31c-.17-.13-.3-.3-.4-.48-.1-.19-.15-.4-.15-.63h4.71v-.23c0-.45-.05-.89-.16-1.32s-.28-.82-.52-1.16-.56-.62-.96-.83-.89-.32-1.46-.32c-.48 0-.91.09-1.3.26s-.73.4-1.01.7-.5.64-.66 1.04-.24.83-.24 1.3c0 .51.08.98.24 1.4s.38.78.67 1.08.64.54 1.06.71c.41.17.87.26 1.37.26.49 0 .92-.05 1.27-.16s.65-.23.87-.36c.23-.13.4-.26.53-.38.12-.12.19-.2.22-.22zm-10.92-1.53c0-.18.04-.37.11-.56.08-.19.18-.37.32-.53s.31-.29.5-.4c.2-.1.42-.15.66-.15.31 0 .56.05.77.15s.37.24.5.42.22.38.28.61.09.48.09.75c0 .25-.04.49-.12.73-.08.23-.2.44-.36.63-.16.18-.35.33-.57.44s-.48.17-.77.17c-.64 0-1.11-.13-1.43-.39v-1.87zm-1.57 6.11h1.58v-2.81c.12.04.23.09.33.13s.22.08.34.11.26.06.4.07c.15.02.33.03.53.03.45 0 .89-.09 1.31-.26.43-.17.82-.47 1.18-.9.22-.26.39-.57.54-.92.14-.35.22-.77.22-1.27 0-.42-.06-.83-.18-1.22s-.29-.75-.52-1.06-.53-.56-.88-.75-.77-.28-1.26-.28c-.26 0-.5.03-.71.08s-.4.12-.57.2-.31.17-.43.27-.22.19-.3.28l-.04-.71h-1.54zm-7.18-5.17c0 .8.21 1.43.62 1.9s1.01.71 1.8.71c.25 0 .48-.03.67-.08.2-.05.37-.12.52-.21s.29-.18.4-.28.22-.19.3-.28l.04.71h1.52v-6.31h-1.59v3.42c0 .23-.04.45-.11.65-.08.2-.18.38-.32.53-.13.15-.3.27-.48.36-.19.09-.39.13-.61.13-.35 0-.64-.11-.85-.33-.22-.22-.33-.53-.33-.94v-3.82h-1.59v3.84zm-6.31 1.71c.29.32.67.57 1.14.73.48.17 1.01.25 1.6.25.37 0 .72-.05 1.04-.14s.61-.23.86-.4.44-.38.59-.63c.14-.25.22-.52.22-.83 0-.3-.05-.57-.15-.79s-.24-.41-.42-.57-.4-.3-.66-.4c-.26-.11-.55-.2-.87-.27-.52-.13-.9-.24-1.15-.36-.25-.11-.37-.27-.37-.46 0-.16.07-.3.22-.41s.41-.17.79-.17.7.05.98.15.5.22.67.34l.82-1.12c-.31-.23-.67-.41-1.06-.53s-.86-.17-1.42-.17c-.31 0-.63.05-.94.13-.31.09-.59.22-.83.38-.25.17-.45.37-.6.62s-.23.53-.23.84c0 .3.06.57.2.79.13.22.3.41.5.57s.42.28.65.37.46.16.67.22c.35.08.63.16.83.23.21.07.37.14.48.22.12.07.19.15.23.22.04.08.05.16.05.25 0 .21-.1.35-.31.44s-.48.13-.82.13c-.39 0-.73-.07-1.03-.2s-.55-.29-.75-.49z" fill="#515457"/></svg>